<svg xmlns="http://www.w3.org/2000/svg" width="104" height="146" viewBox="0 0 104 146">
  <g id="组_2" data-name="组 2" transform="translate(-348 -633)">
    <rect id="矩形_3" data-name="矩形 3" width="104" height="146" transform="translate(348 633)" fill="#fbfbfb"/>
    <path id="暂无图片_2_" data-name="暂无图片(2)" d="M96.512,120.49c1.146-.083,2.357-.139,3.632-.185v-1.132H97.159v-.9c.2-.273.536-.813,1.017-1.608H96.632v-.836h2.033c.273-.513.531-1.012.772-1.488l.952.3a8.366,8.366,0,0,1-.6,1.192h3.757v.836H99.312q-.483.818-1.012,1.608h1.848V117.2h.957v1.072h2.324v.9h-2.324v1.077c.236,0,.61-.023,1.132-.06a8.315,8.315,0,0,0,1.132-.055,7.772,7.772,0,0,1-.055.9c-.24,0-.6.018-1.077.055a7.944,7.944,0,0,0-1.132.06v1.132h-.957V121.2c-.712.079-1.71.162-2.981.24h-.536Zm2.209,2.144h9.889v5.957H107.6v-.6h-7.87v.6H98.716v-5.961Zm1.012.892V124.9h7.86v-1.372Zm0,2.264V127.1h7.86v-1.317h-7.86Zm4.649-10.189a38.629,38.629,0,0,0,5.716-.476l.3.892a47.313,47.313,0,0,1-5.06.421v1.848H110.7v.9h-2.093v3.041h-1.012v-3.041h-2.324a6.992,6.992,0,0,1-1.372,3.281,8.94,8.94,0,0,0-.836-.721,5.912,5.912,0,0,0,1.312-4.409V115.6Zm8.692.055h11.738v1.012H119.4a20.705,20.705,0,0,1-.36,3.457h6.853V121.2h-5.605v4.653c-.046.832.337,1.225,1.132,1.188h2.029c.795.037,1.211-.259,1.248-.892a5.558,5.558,0,0,1,.06-.661q.044-.658.12-1.312c.116.046.323.1.6.185a3.321,3.321,0,0,0,.536.231,12.249,12.249,0,0,1-.24,1.969c-.079,1.109-.836,1.622-2.264,1.553h-2.329c-1.391.032-2.066-.661-2.029-2.089V121.2h-.36q-1.019,4.713-6.192,7.569a4.954,4.954,0,0,0-.841-1.077q4.831-2.329,5.841-6.493h-5.6v-1.077h5.841a14.88,14.88,0,0,0,.36-3.457h-5.129v-1.012h.009Zm14.718-.531h12.689V128.59h-1.072v-.716H128.864v.716h-1.072V115.12Zm1.072,1.007v10.79h10.545v-10.79Zm.481,3.517a13.684,13.684,0,0,0,3.276-3.336l.952.421a3.585,3.585,0,0,1-.6.772h5.065v.9a10.784,10.784,0,0,1-2.565,2.264,12.5,12.5,0,0,0,3.632.841c-.079.2-.2.476-.36.836l-.125.24a15.888,15.888,0,0,1-4.173-1.317,20.263,20.263,0,0,1-4.889,1.613,4.51,4.51,0,0,0-.476-1.012,17.713,17.713,0,0,0,4.288-1.192,12.663,12.663,0,0,1-1.848-1.608,9.048,9.048,0,0,1-1.488,1.312c-.37-.411-.61-.647-.693-.73Zm1.063,5.545.3-.952,1.664.24q4.124.6,5.245.892l-.36,1.077a63.547,63.547,0,0,0-6.844-1.257Zm1.5-1.848.3-1.007a6.587,6.587,0,0,0,.772.12q2.745.478,3.7.656l-.36,1.017C134.8,123.8,133.337,123.544,131.9,123.345Zm4.764-4.889h-4.344a7.393,7.393,0,0,0,2.144,1.668,8.813,8.813,0,0,0,2.2-1.664Zm14.774-3.868h1.137v4.173h3.933v1.077h-10.37v.947c0,.6-.018,1.132-.055,1.608h7.089v6.192h-1.132v-5.125h-6.017a8.181,8.181,0,0,1-2.38,5.185,6.018,6.018,0,0,1-.476-.531,2.957,2.957,0,0,1-.416-.481c1.617-1.465,2.38-3.729,2.264-6.793v-5.952h1.132v3.872h5.3v-4.168h-.009ZM101.6,70.485V98.72c0,2.634.518,3.133,3.059,3.133h34.672c2.523,0,3.064-.485,3.064-3.133V70.48c0-2.579-.476-3.133-3.064-3.133H104.654c-2.532,0-3.059.439-3.059,3.133Zm35.984,24.043H106.42c3.406-5.088,9.455-13.581,11-13.581,1.493,0,6.543,6.862,8.835,9.274,0,0,2.939-4.03,4.473-4.03C132.3,86.206,137.529,94.5,137.579,94.529Zm-9.15-17.763a3.8,3.8,0,1,1,1.077,2.707,3.8,3.8,0,0,1-1.077-2.707Zm-7.713-11.3L114.756,64.3c-1.982-.388-2.773-.245-3.253,1.165Zm28.1,5.467-4.667-.91V98.752a5.2,5.2,0,0,1-1.1,3.831,4.954,4.954,0,0,1-3.683,1.072h-2.819l5.989,1.174c2.468.481,3.087.106,3.572-2.5l5.134-27.74c.476-2.528.111-3.17-2.426-3.66Z" transform="translate(273.488 609.889)" fill="#e0e0e0"/>
  </g>
</svg>
